<svg width="29" height="30" viewBox="0 0 29 30" fill="none" xmlns="http://www.w3.org/2000/svg">
<path d="M1.98586 9.31979C2.09958 7.46469 3.50713 6.01084 5.25939 5.91886C7.79678 5.78565 11.4234 5.625 14.156 5.625C16.8886 5.625 20.5153 5.78565 23.0526 5.91886C24.8049 6.01084 26.2125 7.46469 26.3262 9.31979C26.4351 11.0971 26.5425 13.2841 26.5425 15C26.5425 16.7159 26.4351 18.9029 26.3262 20.6802C26.2125 22.5353 24.8049 23.9892 23.0526 24.0811C20.5153 24.2143 16.8886 24.375 14.156 24.375C11.4234 24.375 7.79678 24.2143 5.25939 24.0811C3.50713 23.9892 2.09958 22.5353 1.98586 20.6802C1.87691 18.9029 1.76953 16.7159 1.76953 15C1.76953 13.2841 1.87691 11.0971 1.98586 9.31979Z" fill="#FC0D1B"/>
<path d="M11.5017 11.25V18.75L18.5797 15L11.5017 11.25Z" fill="white"/>
</svg>
